<svg xmlns="http://www.w3.org/2000/svg" width="336" height="246" viewBox="0 0 336 246" fill="none">
<g style="mix-blend-mode:hard-light" opacity="0.8">
<path d="M64.69 8.06373C36.8742 8.06373 14.3848 30.6271 14.3848 58.369C14.3848 80.4885 28.6626 99.279 48.5628 106.011L105.526 28.9256C96.4268 16.2753 81.4831 7.98975 64.69 7.98975" fill="#F8BE15"/>
<path d="M138.594 0.147957C131.123 0.147957 124.317 3.62494 119.878 9.61719L105.526 28.9995C111.518 37.2851 114.995 47.4201 114.995 58.4429C114.995 86.2588 92.506 108.748 64.6901 108.748C59.0678 108.748 53.5934 107.86 48.5628 106.085L4.84165 165.194C-0.780709 172.739 -1.5205 182.283 2.69627 190.642C6.91303 199.002 15.0507 204.032 24.4459 204.032H31.2519L92.506 121.103C95.3172 117.256 99.6819 115.11 104.416 115.11C109.225 115.11 113.59 117.33 116.401 121.177L135.413 147.069L197.037 63.6954L157.311 9.54321C152.872 3.47698 146.066 0 138.594 0" fill="#B6D559"/>
<path d="M105.526 28.9998L48.5628 106.085C53.5933 107.787 59.0677 108.748 64.6901 108.748C92.5059 108.748 114.995 86.259 114.995 58.4431C114.995 47.4943 111.444 37.2853 105.526 28.9998Z" fill="#B1B335"/>
<path d="M217.381 50.0835C210.945 50.0835 205.027 53.0426 201.254 58.2211L197.185 63.7695L271.312 164.898C277.896 173.923 277.822 185.612 270.646 195.007C266.133 200.851 258.883 204.032 251.485 204.032H177.285L189.196 220.234C190.527 222.009 191.415 223.933 191.859 225.93H314.737C321.099 225.93 327.313 223.193 331.234 218.162C337.448 210.099 337.522 199.964 331.826 192.196L233.657 58.2951C229.81 53.1166 223.966 50.0835 217.529 50.0835" fill="#00B1E2"/>
<path d="M197.037 63.7693L135.413 147.143L177.137 204.106H251.337C258.735 204.106 265.985 200.925 270.498 195.081C277.748 185.76 277.822 173.997 271.238 164.972L197.111 63.8433L197.037 63.7693Z" fill="#00A15D"/>
<path d="M31.2523 204.107L19.1198 220.456C15.5689 225.264 15.051 231.331 17.7142 236.731C20.4514 242.057 25.6299 245.313 31.6221 245.313H176.398C181.132 245.313 185.719 243.315 188.604 239.542C191.785 235.399 192.821 230.591 191.711 226.078H118.843C110.705 226.078 103.677 221.713 100.052 214.538C98.3506 211.208 97.6109 207.658 97.7588 204.181H31.1783L31.2523 204.107Z" fill="#F15623"/>
<path d="M104.491 115.184C99.7561 115.184 95.3914 117.404 92.5802 121.251L31.3261 204.18H97.9067C98.0546 200.111 99.4602 196.043 102.049 192.566L135.562 147.291L116.549 121.399C113.738 117.552 109.373 115.332 104.565 115.332" fill="#B34B2E"/>
<path d="M97.8329 204.107C97.6849 207.584 98.4247 211.135 100.126 214.464C103.751 221.713 110.779 226.004 118.917 226.004H191.785C191.342 224.007 190.38 222.083 189.122 220.308L177.212 204.107H97.8329Z" fill="#3C6682"/>
<path d="M135.488 147.143L101.975 192.418C99.3862 195.969 97.9806 199.963 97.8327 204.032H177.211L135.488 147.069V147.143Z" fill="#414670"/>
</g>
</svg>