<svg xmlns="http://www.w3.org/2000/svg" width="299" height="64" viewBox="0 0 299 64" fill="none">
<path d="M16.4849 2.05486C9.39659 2.05486 3.66565 7.80466 3.66565 14.8741C3.66565 20.5108 7.30404 25.2991 12.3752 27.0146L26.891 7.37107C24.5723 4.14741 20.7642 2.03601 16.4849 2.03601" fill="#F8BE15"/>
<path d="M35.3178 0.0377036C33.4138 0.0377036 31.6794 0.923737 30.5483 2.45073L26.8911 7.3899C28.4181 9.5013 29.3041 12.084 29.3041 14.8929C29.3041 21.9812 23.5732 27.7121 16.4849 27.7121C15.0521 27.7121 13.6571 27.4859 12.3752 27.0335L1.23379 42.096C-0.198947 44.0189 -0.387466 46.4508 0.687085 48.5811C1.76164 50.7113 3.83534 51.9932 6.22952 51.9932H7.96388L23.5732 30.8604C24.2895 29.8801 25.4018 29.3334 26.6083 29.3334C27.8337 29.3334 28.9459 29.8989 29.6623 30.8792L34.5072 37.4774L50.2107 16.2314L40.0873 2.43188C38.9562 0.886034 37.2218 0 35.3178 0" fill="#B6D559"/>
<path d="M26.8911 7.38995L12.3752 27.0335C13.6571 27.4671 15.0521 27.7122 16.4849 27.7122C23.5731 27.7122 29.3041 21.9812 29.3041 14.893C29.3041 12.1029 28.3992 9.50135 26.8911 7.38995Z" fill="#B1B335"/>
<path d="M55.395 12.7627C53.7549 12.7627 52.2467 13.5168 51.2853 14.8364L50.2484 16.2503L69.1379 42.0207C70.8157 44.3206 70.7969 47.2992 68.9683 49.6933C67.8183 51.1826 65.9708 51.9933 64.0856 51.9933H45.1773L48.2124 56.1218C48.5518 56.5742 48.778 57.0644 48.8911 57.5734H80.2039C81.8252 57.5734 83.4087 56.8759 84.4079 55.594C85.9914 53.5391 86.0103 50.9564 84.5587 48.977L59.5424 14.8552C58.5621 13.5356 57.0728 12.7627 55.4327 12.7627" fill="#00B1E2"/>
<path d="M50.2107 16.2502L34.5071 37.4962L45.1395 52.0121H64.0479C65.9331 52.0121 67.7805 51.2015 68.9305 49.7122C70.778 47.3368 70.7968 44.3394 69.119 42.0395L50.2295 16.2691L50.2107 16.2502Z" fill="#00A15D"/>
<path d="M7.96397 52.0121L4.87228 56.1784C3.96739 57.4038 3.83542 58.9496 4.51409 60.3258C5.2116 61.6831 6.53123 62.5126 8.05823 62.5126H44.9512C46.1577 62.5126 47.3265 62.0036 48.0617 61.0422C48.8723 59.9865 49.1363 58.7611 48.8535 57.6111H30.2845C28.2108 57.6111 26.4199 56.4989 25.4961 54.6702C25.0625 53.8219 24.874 52.917 24.9117 52.031H7.94512L7.96397 52.0121Z" fill="#F15623"/>
<path d="M26.6272 29.3522C25.4207 29.3522 24.3084 29.9178 23.5921 30.8981L7.98279 52.0309H24.9494C24.9871 50.9941 25.3453 49.9572 26.0051 49.0712L34.545 37.5339L29.7 30.9358C28.9837 29.9555 27.8714 29.3899 26.6461 29.3899" fill="#B34B2E"/>
<path d="M24.9306 52.0121C24.8929 52.8982 25.0814 53.8031 25.515 54.6514C26.4388 56.4989 28.2297 57.5923 30.3034 57.5923H48.8724C48.7593 57.0833 48.5142 56.5931 48.1937 56.1407L45.1586 52.0121H24.9306Z" fill="#3C6682"/>
<path d="M34.5261 37.4962L25.9862 49.0335C25.3264 49.9384 24.9682 50.9564 24.9305 51.9932H45.1585L34.5261 37.4774V37.4962Z" fill="#414670"/>
<path d="M111.331 63.0969C104.77 63.0969 101.735 58.4028 101 57.0266L103.055 55.5562C104.28 57.8184 107.221 60.797 111.576 60.797C115.931 60.797 119.456 58.1012 119.456 53.6898C119.456 49.2785 114.95 47.6196 112.99 46.8278C111.029 46.036 108.823 45.1123 107.466 44.3771C106.147 43.6418 102.565 41.4362 102.565 36.5536C102.565 31.6709 106.825 28.2211 112.5 28.2211C118.174 28.2211 121.021 32.1422 121.322 32.6324L119.456 34.2536C118.174 32.6324 116.232 30.5775 112.311 30.5775C108.39 30.5775 105.261 32.6324 105.261 36.4593C105.261 40.2862 107.9 41.7944 110.313 42.8312C112.707 43.8681 116.477 45.4328 117.269 45.8663C118.061 46.2999 122.171 48.5621 122.171 53.7087C122.171 58.8552 117.91 63.1157 111.35 63.1157" fill="#414670"/>
<path d="M143.058 44.3959C141.098 46.1115 138.458 46.7524 135.272 46.7524H130.182V62.5125H127.543V28.7301H135.272C138.458 28.7301 141.098 29.3711 143.058 31.0866C145.019 32.8021 146.15 34.8004 146.15 37.7413C146.15 40.6821 145.019 42.6804 143.058 44.3959ZM135.367 31.1243H130.182V44.3394H135.367C139.627 44.3394 143.341 42.5296 143.341 37.7224C143.341 32.9152 139.627 31.1054 135.367 31.1054" fill="#414670"/>
<path d="M165.624 63.0969C156.462 63.0969 148.488 56.4422 148.488 45.659C148.488 34.8758 156.462 28.2211 165.624 28.2211C174.786 28.2211 182.76 34.8758 182.76 45.659C182.76 56.4422 174.823 63.0969 165.624 63.0969ZM165.624 30.5775C157.932 30.5775 151.278 36.12 151.278 45.6024C151.278 55.0849 157.989 60.5896 165.624 60.5896C173.259 60.5896 180.027 55.0095 180.027 45.6024C180.027 36.1954 173.372 30.5775 165.624 30.5775Z" fill="#414670"/>
<path d="M207.343 62.5125L194.279 43.6607L190.301 47.5819V62.5125H187.662V28.7301H190.301V44.5467L206.268 28.7301H209.699L196.088 41.9452L210.68 62.5125H207.343Z" fill="#414670"/>
<path d="M240.258 62.5125L236.092 52.3703H219.974L215.77 62.5125H212.98L227.42 28.6359H228.891L243.331 62.5125H240.239H240.258ZM228.005 32.6513L220.954 49.9384H235.055L228.005 32.6513Z" fill="#414670"/>
<path d="M271.043 62.5125L248.534 32.8963V62.5125H245.876V28.7301H248.534L270.798 57.8561V28.7301H273.456V62.5125H271.043Z" fill="#414670"/>
<path d="M279.432 62.5125V28.7301H297.794V31.1243H282.071V43.3591H296.908V45.7721H282.071V60.1183H298.133V62.5125H279.432Z" fill="#414670"/>
<path d="M117.1 22.132L110.464 9.97255C110.464 9.97255 110.615 12.3479 110.615 13.9126V22.1131H103.677V0.320435H111.406L117.722 12.4798C117.722 12.4798 117.571 10.1045 117.571 8.53981V0.339283H124.508V22.132H117.081H117.1Z" fill="#414670"/>
<path d="M128.844 22.132V0.358215H144.321V5.97605H135.951V8.33253H143.85V13.9315H135.951V16.4576H144.623V22.132H128.844Z" fill="#414670"/>
<path d="M173.787 22.132H166.529L163.588 9.82181L160.685 22.132H153.427L147.262 0.358215H154.69L157.367 12.5176L160.063 0.358215H167.17L169.847 12.5176L172.524 0.358215H179.951L173.787 22.132Z" fill="#414670"/>
<path d="M205.175 20.6615C203.441 21.9812 201.254 22.5279 198.728 22.5279C196.202 22.5279 193.298 21.8304 190.339 19.6247L193.487 14.2519C195.504 15.9486 198.351 16.6273 199.293 16.6273C200.236 16.6273 200.896 16.3445 200.896 15.7035C200.896 15.0626 200.104 14.8175 199.312 14.5724C198.52 14.3462 196.786 13.7806 196.164 13.5544C193.129 12.3479 191.168 10.934 191.168 7.29562C191.168 4.9203 192.393 3.09168 193.694 2.01713C195.014 0.90487 197.201 0.113098 200.104 0.113098C203.007 0.113098 205.986 1.14995 207.871 2.7335L205.156 7.78577C203.516 6.33419 201.122 5.69322 199.972 5.69322C198.822 5.69322 198.2 5.91945 198.2 6.57926C198.2 7.23907 199.218 7.42759 199.708 7.59725C200.217 7.74807 201.537 8.14396 202.291 8.38903C205.571 9.50129 207.965 11.1414 207.965 14.9495C207.965 17.2305 206.853 19.2854 205.118 20.6238" fill="#414670"/>
<path d="M222.858 5.90065V22.132H215.713V5.90065H210.604V0.358215H228.005V5.90065H222.858Z" fill="#414670"/>
<path d="M241.616 22.509C234.829 22.509 229.777 18.3805 229.777 11.2734C229.777 4.16624 234.829 0 241.616 0C248.402 0 253.455 4.16624 253.455 11.2734C253.455 18.3805 248.402 22.509 241.616 22.509ZM241.616 6.03257C238.769 6.03257 236.94 8.12512 236.94 11.1226C236.94 14.12 238.769 16.2125 241.616 16.2125C244.462 16.2125 246.253 14.1388 246.253 11.1226C246.253 8.10627 244.462 6.03257 241.616 6.03257Z" fill="#414670"/>
<path d="M267.97 22.132L264.501 14.874H263.578V22.132H256.433V0.339294H265.896C268.573 0.339294 270.628 0.810589 272.212 1.92284C273.795 3.0351 274.889 4.92028 274.889 7.2956C274.889 11.7069 272.212 13.2905 271.25 13.856L276.152 22.132H267.951H267.97ZM266.933 6.12679C266.613 5.88172 266.142 5.71205 265.35 5.71205H263.54V9.50126H265.35C266.575 9.50126 267.725 9.02996 267.725 7.59723C267.725 6.65464 267.254 6.33416 266.933 6.10794" fill="#414670"/>
<path d="M290.479 13.611V22.132H283.353V13.611L275.813 0.358215H283.693L286.916 7.71041L290.178 0.358215H298.058L290.479 13.611Z" fill="#414670"/>
</svg>