<svg xmlns="http://www.w3.org/2000/svg" width="86" height="34" viewBox="0 0 86 34" fill="none">
  <path d="M86 7.03903V25.961C86 29.8482 82.8483 33 78.9612 33H71.7156C71.7156 29.4172 71.728 24.6134 71.7043 21.0368C71.6992 20.4001 71.9018 20.1656 72.5416 20.1995C73.3491 20.2417 74.1607 20.2119 74.9702 20.2057C76.0512 20.1975 76.0338 20.1892 76.1562 19.1513C76.2806 18.0959 76.4041 17.0364 76.616 15.9975C76.7425 15.3813 76.5131 15.2661 75.9916 15.2723C74.8118 15.2857 73.6309 15.2548 72.4521 15.2847C71.9224 15.298 71.6899 15.1376 71.7084 14.5821C71.7383 13.681 71.7043 12.7778 71.7249 11.8757C71.7578 10.4449 72.4984 9.70733 73.923 9.67339C74.6163 9.65693 75.3106 9.6559 76.005 9.66927C76.4637 9.6775 76.6828 9.50881 76.6725 9.01917C76.6509 8.02447 76.652 7.02977 76.6705 6.03507C76.6808 5.4868 76.4874 5.23478 75.9011 5.24918C74.6986 5.28004 73.4859 5.16895 72.2958 5.29239C71.3741 5.38908 70.4144 5.61949 69.5895 6.02787C67.6269 6.99891 66.9141 8.81138 66.768 10.8718C66.6888 11.9765 66.7433 13.0916 66.7392 14.2025C66.7371 14.9205 66.3891 15.2799 65.6952 15.2805C64.7931 15.2805 63.891 15.2929 62.9889 15.2764C62.5322 15.2672 62.3162 15.406 62.3285 15.9101C62.3552 17.1126 62.3542 18.3161 62.3285 19.5186C62.3182 20.0298 62.5167 20.2283 63.0177 20.2201C63.9424 20.2047 64.8682 20.216 65.7929 20.2201C66.7299 20.2222 66.7361 20.2273 66.7371 21.1356C66.7402 22.9398 66.7371 24.7441 66.7371 26.5494C66.7371 28.3546 66.7567 31.1094 66.731 33.001H60.0367C56.1517 33 53 29.8482 53 25.961V7.03903C53 3.15177 56.1517 0 60.0388 0H78.9612C82.8483 0 86 3.15177 86 7.03903Z" fill="#414670"/>
  <path d="M21.3732 17.0227C21.3669 19.4179 19.3988 21.3574 16.9856 21.3468C14.5957 21.3372 12.6594 19.3787 12.6658 16.9771C12.6711 14.5904 14.6317 12.6488 17.0312 12.6531C19.4348 12.6573 21.3785 14.6148 21.3732 17.0227Z" fill="#414670"/>
  <path d="M26.8208 10.1838C26.8186 8.5093 25.5267 7.21739 23.848 7.21315C19.296 7.20467 14.7441 7.20467 10.1922 7.21315C8.50499 7.21633 7.21731 8.5199 7.21519 10.204C7.21095 14.7347 7.21201 19.2643 7.21837 23.794C7.21837 24.0589 7.25016 24.3313 7.31799 24.5857C7.67727 25.9179 8.81869 26.7859 10.2124 26.789C12.4814 26.7943 14.7494 26.7901 17.0185 26.7901C19.2876 26.7901 21.5556 26.7954 23.8236 26.789C25.514 26.7837 26.8176 25.5003 26.8208 23.8184C26.8303 19.2739 26.8292 14.7283 26.8208 10.1838ZM17.0227 23.085C13.6811 23.0956 10.9362 20.3591 10.9256 17.008C10.915 13.6674 13.6324 10.9448 17.0058 10.9161C20.3421 10.8875 23.1125 13.6484 23.1114 17.0016C23.1114 20.3475 20.3813 23.0744 17.0227 23.085ZM23.8766 11.5043C23.1241 11.5033 22.5211 10.895 22.5243 10.1404C22.5264 9.38895 23.1389 8.79015 23.8967 8.79969C24.6492 8.80817 25.231 9.39425 25.2321 10.1457C25.2331 10.9066 24.6354 11.5065 23.8766 11.5043Z" fill="#414670"/>
  <path d="M26.7487 0H7.25233C3.24728 0 0 3.24728 0 7.25233V26.7477C0 30.7527 3.24728 34 7.25233 34H26.7487C30.7538 34 34 30.7527 34 26.7477V7.25233C34 3.24728 30.7538 0 26.7487 0ZM28.7793 23.7272C28.7772 25.939 27.5129 27.7481 25.4918 28.4667C24.9311 28.6659 24.3525 28.7444 23.7622 28.7444C19.2696 28.7454 14.7781 28.7486 10.2866 28.7433C8.07369 28.7412 6.26034 27.4832 5.53543 25.4653C5.32982 24.8919 5.25669 24.2984 5.25669 23.6933V16.9889C5.25669 14.7537 5.25775 12.5186 5.25669 10.2845C5.25563 8.74137 5.80992 7.44522 6.98208 6.43309C7.92107 5.62233 9.02964 5.25563 10.2643 5.25563C14.7633 5.25563 19.2632 5.25034 23.7622 5.25775C25.9793 5.26093 27.7778 6.51788 28.5059 8.54531C28.7062 9.10383 28.7804 9.68355 28.7804 10.2728C28.7815 14.758 28.7846 19.242 28.7804 23.7272H28.7793Z" fill="#414670"/>
</svg>